<?xml version="1.0" standalone="no"?>
<!DOCTYPE svg PUBLIC "-//W3C//DTD SVG 20010904//EN"
 "http://www.w3.org/TR/2001/REC-SVG-20010904/DTD/svg10.dtd">
<svg version="1.0" xmlns="http://www.w3.org/2000/svg"
 width="342.000000pt" height="389.000000pt" viewBox="0 0 342.000000 389.000000"
 preserveAspectRatio="xMidYMid meet">

<g transform="translate(0.000000,389.000000) scale(0.100000,-0.100000)"
fill="#000000" stroke="none">
<path d="M1526 3688 c-39 -17 -52 -19 -67 -10 -31 20 -51 15 -44 -9 10 -30
-14 -43 -40 -21 -11 9 -17 13 -13 8 4 -4 -5 -18 -20 -31 -28 -23 -72 -39 -72
-25 0 28 -147 43 -192 19 -13 -7 -54 -41 -92 -75 -37 -35 -72 -61 -77 -58 -5
3 -9 1 -9 -5 0 -5 -7 -16 -15 -25 -12 -12 -22 -13 -41 -6 -33 13 -34 13 -34
-6 0 -10 -6 -14 -15 -10 -11 4 -15 -2 -15 -22 0 -15 -7 -36 -15 -46 -8 -11
-15 -32 -15 -47 0 -15 -6 -29 -14 -32 -8 -3 -17 -19 -21 -36 -4 -18 -20 -40
-38 -53 -71 -50 -93 -91 -101 -190 -4 -51 -2 -61 25 -98 17 -23 33 -57 36 -76
3 -19 17 -46 31 -61 22 -24 50 -115 49 -163 0 -30 46 -226 65 -275 11 -27 19
-51 19 -52 -1 -2 0 -11 0 -20 3 -34 18 72 18 127 1 35 7 65 18 80 13 19 18 49
20 135 3 163 18 215 62 215 9 0 28 6 42 14 14 7 38 16 55 20 16 4 31 12 34 16
3 5 32 11 63 14 32 3 66 10 77 16 13 7 21 7 25 0 4 -6 16 -8 28 -4 31 10 107
6 122 -6 9 -7 15 -7 19 -1 9 14 92 25 113 16 10 -5 23 -7 30 -6 6 1 14 -3 18
-9 9 -14 45 -12 77 4 27 14 28 14 34 -10 7 -29 13 -30 66 -4 23 11 44 16 47
11 6 -9 40 -13 84 -11 75 5 186 -3 221 -15 23 -8 51 -15 64 -15 13 0 30 -7 38
-15 11 -10 27 -13 52 -9 29 4 42 1 60 -16 31 -29 50 -79 56 -147 5 -68 24
-124 52 -155 32 -37 55 -119 63 -229 6 -90 8 -99 15 -64 5 22 23 74 41 115 18
41 36 96 39 122 4 27 19 63 36 87 17 22 30 45 30 51 0 5 4 10 9 10 35 0 95
120 68 137 -5 3 -6 23 -3 44 3 22 2 58 -4 82 -9 36 -8 48 10 82 11 22 20 59
20 84 0 43 -3 48 -86 126 -72 68 -85 85 -80 103 8 23 -7 31 -20 11 -4 -7 -14
1 -26 20 -20 31 -20 31 0 65 l20 34 -27 26 c-15 14 -33 26 -40 26 -8 0 -36 14
-63 30 -26 17 -52 30 -57 30 -4 0 -16 9 -26 20 -10 11 -14 20 -10 20 4 0 0 9
-10 20 -10 11 -26 20 -35 20 -9 0 -25 7 -36 15 -10 8 -31 15 -45 15 -14 0 -34
9 -45 21 -15 16 -27 20 -56 16 -21 -3 -41 -1 -44 4 -11 19 -65 9 -88 -16 -26
-28 -41 -33 -33 -10 5 12 2 12 -20 2 -22 -10 -28 -8 -47 13 -37 43 -67 53
-113 40 -35 -11 -44 -10 -67 5 -14 10 -35 15 -46 12 -11 -3 -23 -1 -26 4 -7
12 -12 11 -68 -13z m-426 -112 c0 -2 -18 -15 -40 -30 -40 -26 -51 -24 -27 6
15 19 67 38 67 24z m80 -12 c0 -15 -39 -44 -52 -39 -9 4 -18 0 -21 -9 -8 -21
-57 -21 -57 -1 0 8 6 15 14 15 8 0 16 5 18 11 7 22 98 42 98 23z m-260 -168
c0 -3 -4 -8 -10 -11 -5 -3 -10 -1 -10 4 0 6 5 11 10 11 6 0 10 -2 10 -4z
m1763 -715 c-5 -21 -40 -57 -48 -50 -4 4 43 69 50 69 2 0 1 -9 -2 -19z"/>
<path d="M2526 3332 c-4 -13 -5 -26 -2 -29 10 -11 18 4 14 29 l-4 23 -8 -23z"/>
<path d="M1005 2381 c-6 -5 -21 -11 -34 -13 -25 -3 -50 -32 -38 -44 4 -4 18
-2 32 4 29 13 213 1 286 -18 23 -6 59 -8 81 -5 34 6 38 9 26 21 -13 13 -87 37
-173 55 -54 11 -169 11 -180 0z"/>
<path d="M1960 2380 c-67 -19 -135 -43 -148 -53 -11 -8 -11 -12 0 -18 19 -13
74 -11 153 5 39 7 103 13 142 12 52 -1 73 3 73 12 0 16 13 15 56 -3 20 -8 40
-12 46 -9 13 8 -23 46 -38 40 -6 -2 -16 0 -23 7 -14 14 -215 19 -261 7z"/>
<path d="M1276 2281 c13 -12 76 -32 82 -26 3 3 -11 12 -31 20 -40 17 -67 20
-51 6z"/>
<path d="M1864 2280 c-22 -9 -42 -31 -27 -29 4 0 26 9 48 19 41 19 22 28 -21
10z"/>
<path d="M1923 2257 c-41 -15 -52 -27 -26 -27 14 0 23 -8 27 -24 7 -28 55 -51
86 -41 11 4 28 17 36 31 20 30 27 30 68 -1 39 -29 69 -33 64 -8 -4 24 -76 60
-145 72 -67 13 -69 13 -110 -2z"/>
<path d="M1128 2250 c-39 -10 -108 -50 -108 -62 0 -15 42 -8 68 10 39 27 62
34 62 18 0 -24 46 -58 76 -54 36 4 83 67 61 80 -24 13 -120 18 -159 8z m129
-26 c-3 -3 -12 -4 -19 -1 -8 3 -5 6 6 6 11 1 17 -2 13 -5z"/>
<path d="M1775 1540 c-11 -5 -39 -9 -62 -9 -23 -1 -45 -6 -48 -12 -7 -10 11
-9 170 7 28 3 57 9 65 14 19 12 -97 12 -125 0z"/>
<path d="M1390 1521 c-62 -11 -10 -19 126 -19 75 0 118 3 104 7 -37 11 -189
19 -230 12z"/>
<path d="M2319 1380 c-6 -37 8 -154 26 -225 14 -57 14 -67 -5 -156 -14 -64
-36 -125 -69 -191 -53 -106 -52 -128 1 -47 111 172 135 235 148 384 9 112 -1
148 -65 222 -32 38 -33 38 -36 13z"/>
<path d="M956 1309 c-25 -91 -27 -114 -16 -162 12 -57 56 -131 129 -217 63
-74 62 -61 -3 37 -68 104 -90 177 -84 284 7 108 -5 133 -26 58z"/>
<path d="M1015 609 c-60 -14 -155 -51 -162 -62 -4 -6 3 -8 18 -4 54 15 126 19
133 8 4 -6 23 -11 42 -11 19 0 60 -9 92 -21 31 -11 70 -22 86 -24 27 -4 24 0
-38 60 -73 70 -85 74 -171 54z"/>
<path d="M2467 594 c-38 -14 -45 -20 -36 -31 8 -9 35 -13 88 -12 43 1 98 -6
126 -14 66 -21 115 -28 115 -19 0 10 -45 44 -88 66 -48 25 -147 30 -205 10z"/>
<path d="M1659 314 c19 -8 36 -12 39 -9 5 5 -43 25 -61 25 -7 -1 3 -7 22 -16z"/>
</g>
</svg>
